<svg width="400" height="474" viewBox="0 0 400 474" fill="none" xmlns="http://www.w3.org/2000/svg">
<g clip-path="url(#clip0)">
<path d="M278.025 188.391L201.814 144.39L121.951 190.499V282.716L149.787 298.787V264.98C149.703 264.525 149.66 264.059 149.66 263.585V209.414C149.663 206.803 150.997 204.391 153.16 203.086L198.026 176.008C200.193 174.7 202.863 174.7 205.03 176.008L249.9 203.086C250.489 203.441 251.017 203.878 251.473 204.38L278.025 188.391Z" fill="white"/>
<path d="M251.366 268.745C250.937 269.197 250.446 269.594 249.904 269.922L205.033 297.002C202.866 298.31 200.197 298.31 198.029 297.002L172.842 281.802V312.098L201.814 328.824L278.049 284.81L251.366 268.745Z" fill="white"/>
<path d="M328.132 322.471C329.445 321.677 330.642 320.728 331.705 319.654L399.041 360.242L204.648 472.607L130.896 429.977V353.398L194.699 391.947C200.407 395.396 207.443 395.396 213.15 391.947L328.132 322.471ZM328.132 322.471L327.879 322.054L328.132 322.471ZM70.8434 395.264L0.487808 354.597V118.575L204.648 0.563431L398.981 112.895L331.987 153.281C330.852 152.084 329.556 151.033 328.121 150.167L213.142 80.698C207.434 77.2489 200.398 77.2489 194.69 80.698L79.7195 150.167H79.7193C74.0262 153.61 70.5257 159.956 70.5152 166.818V166.819V305.798C70.5153 307.026 70.6272 308.238 70.8434 309.42V395.264Z" stroke="#BFEFF1"/>
<path d="M172.926 217.911L197.854 202.68C199.058 201.944 200.54 201.944 201.744 202.68L226.67 217.911C227.872 218.646 228.613 220.002 228.615 221.471V251.942C228.615 253.414 227.873 254.773 226.67 255.508L201.742 270.739C200.539 271.475 199.056 271.475 197.852 270.739L172.924 255.506C171.72 254.771 170.98 253.412 170.98 251.941V221.471C170.981 220.002 171.724 218.646 172.926 217.911Z" fill="url(#paint0_linear)"/>
<path d="M172.926 217.911L197.854 202.68C199.058 201.944 200.54 201.944 201.744 202.68L226.67 217.911C227.872 218.646 228.613 220.002 228.615 221.471V251.942C228.615 253.414 227.873 254.773 226.67 255.508L201.742 270.739C200.539 271.475 199.056 271.475 197.852 270.739L172.924 255.506C171.72 254.771 170.98 253.412 170.98 251.941V221.471C170.981 220.002 171.724 218.646 172.926 217.911Z" fill="white"/>
<path d="M172.956 218.086L197.884 202.855C199.088 202.119 200.571 202.119 201.775 202.855L226.7 218.086C227.901 218.82 228.643 220.177 228.645 221.645V252.117C228.645 253.587 227.903 254.946 226.7 255.682L201.773 270.914C200.569 271.65 199.086 271.65 197.882 270.914L172.953 255.681C171.75 254.945 171.009 253.586 171.009 252.115V221.645C171.012 220.176 171.753 218.82 172.956 218.086Z" fill="url(#paint1_linear)"/>
<path d="M172.956 218.086L197.884 202.855C199.088 202.119 200.571 202.119 201.775 202.855L226.7 218.086C227.901 218.82 228.643 220.177 228.645 221.645V252.117C228.645 253.587 227.903 254.946 226.7 255.682L201.773 270.914C200.569 271.65 199.086 271.65 197.882 270.914L172.953 255.681C171.75 254.945 171.009 253.586 171.009 252.115V221.645C171.012 220.176 171.753 218.82 172.956 218.086Z" fill="#80DEE4"/>
<g opacity="0.5">
<path opacity="0.5" d="M226.97 218.797C226.642 219.348 226.19 219.818 225.641 220.154L200.924 235.335C199.73 236.068 198.26 236.068 197.065 235.335L172.348 220.153C171.912 219.885 171.538 219.535 171.238 219.127C171.542 218.712 171.923 218.356 172.367 218.086L197.295 202.855C198.499 202.119 199.981 202.119 201.185 202.855L226.111 218.086C226.432 218.282 226.72 218.522 226.97 218.797Z" fill="url(#paint2_linear)"/>
<path opacity="0.5" d="M226.97 218.797C226.642 219.348 226.19 219.818 225.641 220.154L200.924 235.335C199.73 236.068 198.26 236.068 197.065 235.335L172.348 220.153C171.912 219.885 171.538 219.535 171.238 219.127C171.542 218.712 171.923 218.356 172.367 218.086L197.295 202.855C198.499 202.119 199.981 202.119 201.185 202.855L226.111 218.086C226.432 218.282 226.72 218.522 226.97 218.797Z" fill="white"/>
</g>
<path d="M227.825 219.99C228.041 220.486 228.157 221.025 228.158 221.58V251.95C228.157 253.417 227.354 254.771 226.051 255.504L207.243 267.219L200.646 271.235C202.252 271.351 198.894 270.765 198.819 270.801C198.74 270.475 198.7 270.136 198.7 269.79V239.32C198.702 237.851 199.444 236.495 200.646 235.76L225.574 220.529C226.267 220.105 227.054 219.926 227.825 219.99Z" fill="url(#paint3_linear)"/>
<path d="M227.825 219.99C228.041 220.486 228.157 221.025 228.158 221.58V251.95C228.157 253.417 227.354 254.771 226.051 255.504L207.243 267.219L200.646 271.235C202.252 271.351 198.894 270.765 198.819 270.801C198.74 270.475 198.7 270.136 198.7 269.79V239.32C198.702 237.851 199.444 236.495 200.646 235.76L225.574 220.529C226.267 220.105 227.054 219.926 227.825 219.99Z" fill="#4146A1"/>
</g>
<defs>
<linearGradient id="paint0_linear" x1="242.409" y1="253.739" x2="181.768" y2="279.355" gradientUnits="userSpaceOnUse">
<stop stop-color="#0071BC"/>
<stop offset="1" stop-color="#662D91"/>
</linearGradient>
<linearGradient id="paint1_linear" x1="242.438" y1="253.913" x2="181.798" y2="279.529" gradientUnits="userSpaceOnUse">
<stop stop-color="#0071BC"/>
<stop offset="1" stop-color="#662D91"/>
</linearGradient>
<linearGradient id="paint2_linear" x1="241.246" y1="218.391" x2="181.024" y2="243.7" gradientUnits="userSpaceOnUse">
<stop stop-color="#0071BC"/>
<stop offset="1" stop-color="#662D91"/>
</linearGradient>
<linearGradient id="paint3_linear" x1="270.129" y1="271.587" x2="209.488" y2="297.204" gradientUnits="userSpaceOnUse">
<stop stop-color="#0071BC"/>
<stop offset="1" stop-color="#662D91"/>
</linearGradient>
<clipPath id="clip0">
<rect width="400" height="473.171" fill="white"/>
</clipPath>
</defs>
</svg>
